<svg xmlns="http://www.w3.org/2000/svg" version="1.1" xmlns:xlink="http://www.w3.org/1999/xlink" xmlns:svgjs="http://svgjs.dev/svgjs" width="1500" height="1500" viewBox="0 0 1500 1500"><rect width="1500" height="1500" fill="#000000"></rect><g transform="matrix(0.6666666666666666,0,0,0.6666666666666666,250.88393442622947,244.40971659919023)"><svg viewBox="0 0 244 247" data-background-color="#ffffff" preserveAspectRatio="xMidYMid meet" height="1518" width="1500" xmlns="http://www.w3.org/2000/svg" xmlns:xlink="http://www.w3.org/1999/xlink"><g id="tight-bounds" transform="matrix(1,0,0,1,-0.21567999999999188,-0.09999999999999432)"><svg viewBox="0 0 244.43135999999998 247.2" height="247.2" width="244.43135999999998"><g><svg></svg></g><g><svg viewBox="0 0 244.43135999999998 247.2" height="247.2" width="244.43135999999998"><g transform="matrix(1,0,0,1,0,51.29683053435113)"><svg viewBox="0 0 244.43135999999998 144.60633893129773" height="144.60633893129773" width="244.43135999999998"><g><svg viewBox="0 0 244.43135999999998 144.60633893129773" height="144.60633893129773" width="244.43135999999998"><g><svg viewBox="0 0 244.43135999999998 144.60633893129773" height="144.60633893129773" width="244.43135999999998"><g><svg viewBox="0 0 244.43135999999998 144.60633893129773" height="144.60633893129773" width="244.43135999999998"><g id="textblocktransform"><svg viewBox="0 0 244.43135999999998 144.60633893129773" height="144.60633893129773" width="244.43135999999998" id="textblock"><g><svg viewBox="0 0 244.43135999999998 144.60633893129773" height="144.60633893129773" width="244.43135999999998"><g transform="matrix(1,0,0,1,0,0)"><svg width="244.43135999999998" viewBox="0.7 -37.8 65.5 38.75" height="144.60633893129773" data-palette-color="#202046"><path d="M17.75 0.95Q13.45 0.95 9.75-1.07 6.05-3.1 2.6-6.65L2.6-6.65Q2.5-6.75 2.35-6.75L2.35-6.75Q1.9-6.75 1.35-6.2L1.35-6.2 0.7-6.9 7.65-13.45 8.3-12.75Q8-12.5 7.75-12.05 7.5-11.6 7.65-11.4L7.65-11.4Q12.3-5.5 17.8-5.5L17.8-5.5Q19.7-5.5 21.23-6.25 22.75-7 23.6-8.18 24.45-9.35 24.45-10.6L24.45-10.6Q24.45-13.55 19.3-15.45L19.3-15.45 13.15-17.75Q9.45-19.1 7.38-21.45 5.3-23.8 5.3-27.1L5.3-27.1Q5.3-30.35 6.83-32.77 8.35-35.2 11.15-36.5 13.95-37.8 17.65-37.8L17.65-37.8Q21.15-37.8 23.53-36.73 25.9-35.65 28.6-33.45L28.6-33.45Q28.65-33.4 28.8-33.4L28.8-33.4Q29.05-33.4 29.38-33.58 29.7-33.75 29.9-33.95L29.9-33.95 30.55-33.3 24.35-27.2 23.7-27.9Q23.95-28.15 24.08-28.48 24.2-28.8 24-28.95L24-28.95Q20.75-31.55 17.55-31.55L17.55-31.55Q15-31.55 13.5-30.38 12-29.2 12-27.4L12-27.4Q12-25.8 12.83-24.95 13.65-24.1 15.35-23.5L15.35-23.5 21.4-21.3Q24.55-20.15 26.65-18.88 28.75-17.6 30-15.53 31.25-13.45 31.25-10.35L31.25-10.35Q31.25-7.35 29.68-4.78 28.1-2.2 25.03-0.63 21.95 0.95 17.75 0.95L17.75 0.95ZM55.8-16.3L64.85-1.3Q65.05-0.95 66.2-0.95L66.2-0.95 66.2 0 56.05 0 56.05-0.95Q56.75-0.95 57-1.2 57.25-1.45 57.05-1.7L57.05-1.7 48.65-15.85 43.5-15.85 43.5-1.5Q43.5-1.25 43.9-1.1 44.3-0.95 44.65-0.95L44.65-0.95 44.65 0 35.65 0 35.65-0.95Q36-0.95 36.4-1.1 36.8-1.25 36.8-1.5L36.8-1.5 36.8-36Q36.8-36.25 36.42-36.4 36.05-36.55 35.7-36.55L35.7-36.55 35.7-37.5 50.95-37.5Q57.55-37.5 60.92-34.52 64.3-31.55 64.3-26.85L64.3-26.85Q64.3-22.5 61.92-19.85 59.55-17.2 55.8-16.3L55.8-16.3ZM51.85-31.7L43.5-31.7 43.5-21.9 51.7-21.9Q54.8-21.9 56.35-23.35 57.9-24.8 57.9-26.85L57.9-26.85Q57.9-28.85 56.15-30.28 54.4-31.7 51.85-31.7L51.85-31.7Z" opacity="1" transform="matrix(1,0,0,1,0,0)" fill="#ffffff" class="wordmark-text-0" data-fill-palette-color="primary" id="text-0"></path></svg></g></svg></g></svg></g></svg></g><g></g></svg></g></svg></g></svg></g><path d="M0 45.297L0 1 244.431 1 244.431 45.297 231.391 45.297 231.391 14.041 13.041 14.041 13.041 45.297 0 45.297M0 201.903L0 246.2 244.431 246.2 244.431 201.903 231.391 201.903 231.391 233.159 13.041 233.159 13.041 201.903 0 201.903" fill="#ffffff" stroke="transparent" data-fill-palette-color="tertiary"></path></svg></g><defs></defs></svg><rect width="244.43135999999998" height="247.2" fill="none" stroke="none" visibility="hidden"></rect></g></svg></g></svg>