<svg viewBox="0 0 400 300" xmlns="http://www.w3.org/2000/svg"><rect fill="#68e1fd" height="153.64" rx="10.96" width="130.1" x="144.72" y="69.25"/><path d="m263.86 223.89h-108.19a12 12 0 0 1 -11.95-11.95v-131.73a12 12 0 0 1 11.95-12h108.19a12 12 0 0 1 12 12v131.73a12 12 0 0 1 -12 11.95zm-108.19-153.64a10 10 0 0 0 -9.95 10v131.69a10 10 0 0 0 9.95 9.95h108.19a10 10 0 0 0 10-9.95v-131.73a10 10 0 0 0 -10-10z" fill="#093f68"/><path d="m257.86 230.75h-115.93a7.08 7.08 0 0 1 -7.08-7.08v-138.92a7.08 7.08 0 0 1 7.08-7.08h93.81l29.2 27.19v118.81a7.08 7.08 0 0 1 -7.08 7.08z" fill="#fff"/><path d="m257.86 231.75h-115.93a8.09 8.09 0 0 1 -8.08-8.08v-138.92a8.09 8.09 0 0 1 8.08-8.08h93.81a1 1 0 0 1 .68.27l29.21 27.19a1 1 0 0 1 .31.73v118.81a8.09 8.09 0 0 1 -8.08 8.08zm-115.93-153.08a6.09 6.09 0 0 0 -6.08 6.08v138.92a6.09 6.09 0 0 0 6.08 6.08h115.93a6.08 6.08 0 0 0 6.08-6.08v-118.37l-28.6-26.63z" fill="#093f68"/><path d="m235.74 77.67v21.39a5.46 5.46 0 0 0 5.39 5.47l23.81.33z" fill="#68e1fd"/><g fill="#093f68"><path d="m264.94 105.86-23.81-.33a6.49 6.49 0 0 1 -6.38-6.47v-21.39a1 1 0 0 1 1.68-.73l29.21 27.19a1 1 0 0 1 .24 1.1 1 1 0 0 1 -.94.63zm-28.2-25.86v19.06a4.47 4.47 0 0 0 4.4 4.47l21.22.29z"/><path d="m182.76 164.08-18.76 8.56v.14l18.78 8.56v9.39l-30-13.67v-8.7l30-13.68z"/><path d="m182.76 191.73a.85.85 0 0 1 -.41-.09l-30-13.67a1 1 0 0 1 -.58-.91v-8.7a1 1 0 0 1 .58-.91l30-13.68a1 1 0 0 1 1.41.91v9.4a1 1 0 0 1 -.58.91l-17 7.72 17 7.72a1 1 0 0 1 .58.91v9.39a1 1 0 0 1 -.46.85 1 1 0 0 1 -.54.15zm-29-15.31 28 12.76v-7.18l-18.2-8.29a1 1 0 0 1 -.58-.91v-.14a1 1 0 0 1 .58-.91l18.2-8.3v-7.19l-28 12.76z"/><path d="m205 141.08 6.76 2.41-17.76 53.81-6.7-2.42z"/><path d="m194 198.3a1 1 0 0 1 -.34-.06l-6.7-2.42a1 1 0 0 1 -.61-1.25l17.72-53.81a1 1 0 0 1 .51-.58 1 1 0 0 1 .78 0l6.75 2.41a1 1 0 0 1 .62 1.26l-17.73 53.76a1 1 0 0 1 -.51.59 1.13 1.13 0 0 1 -.49.1zm-5.44-4 4.81 1.74 17.15-51.9-4.87-1.75z"/><path d="m216.36 181.34 18.78-8.56v-.14l-18.78-8.56v-9.4l30 13.68v8.7l-30 13.67z"/><path d="m216.36 191.73a1 1 0 0 1 -.54-.15 1 1 0 0 1 -.46-.85v-9.39a1 1 0 0 1 .58-.91l16.94-7.72-16.94-7.71a1 1 0 0 1 -.58-.91v-9.4a1 1 0 0 1 1.41-.91l30 13.68a1 1 0 0 1 .58.91v8.7a1 1 0 0 1 -.58.91l-30 13.67a.85.85 0 0 1 -.41.08zm1-9.75v7.2l28-12.76v-7.42l-28-12.76v7.19l18.2 8.3a1 1 0 0 1 .58.91v.14a1 1 0 0 1 -.58.91z"/></g><rect fill="#68e1fd" height="44.25" rx="2.13" width="71.35" x="120.98" y="92.53"/><path d="m190.2 137.78h-67.09a3.13 3.13 0 0 1 -3.13-3.12v-40a3.14 3.14 0 0 1 3.13-3.13h67.09a3.13 3.13 0 0 1 3.13 3.13v40a3.13 3.13 0 0 1 -3.13 3.12zm-67.09-44.25a1.14 1.14 0 0 0 -1.11 1.13v40a1.13 1.13 0 0 0 1.13 1.12h67.07a1.12 1.12 0 0 0 1.13-1.12v-40a1.13 1.13 0 0 0 -1.13-1.13z" fill="#093f68"/><path d="m151.53 122.88a7.29 7.29 0 0 1 -1.07 2.59 6 6 0 0 1 -2.18 2 7.46 7.46 0 0 1 -3.61.77 7.3 7.3 0 0 1 -4.6-1.43 6.78 6.78 0 0 1 -2.46-3.67l4.64-1.56a2.7 2.7 0 0 0 .78 1.38 2 2 0 0 0 1.4.52 1.69 1.69 0 0 0 1.7-.89 5.49 5.49 0 0 0 .42-2.33v-14.39h5.28v14.3a13.07 13.07 0 0 1 -.3 2.71z" fill="#093f68"/><path d="m167.67 111.52a4.69 4.69 0 0 0 -1.77-1.37 5 5 0 0 0 -2.1-.51 6.44 6.44 0 0 0 -1.06.1 2.81 2.81 0 0 0 -1 .35 2.31 2.31 0 0 0 -.72.67 1.84 1.84 0 0 0 -.29 1.06 1.78 1.78 0 0 0 .23.93 2.06 2.06 0 0 0 .67.64 7 7 0 0 0 1.06.51c.41.15.87.31 1.39.47.73.25 1.5.52 2.3.82a8.49 8.49 0 0 1 2.18 1.18 6.3 6.3 0 0 1 1.62 1.82 5.29 5.29 0 0 1 .65 2.72 7.1 7.1 0 0 1 -.69 3.24 6.51 6.51 0 0 1 -1.86 2.26 8.14 8.14 0 0 1 -2.67 1.32 11.49 11.49 0 0 1 -3.1.43 12.59 12.59 0 0 1 -4.51-.82 9.59 9.59 0 0 1 -3.6-2.34l3.44-3.5a6.32 6.32 0 0 0 2.11 1.64 5.66 5.66 0 0 0 2.59.66 5.38 5.38 0 0 0 1.14-.12 3.08 3.08 0 0 0 1-.4 2 2 0 0 0 .66-.74 2.28 2.28 0 0 0 .25-1.11 1.71 1.71 0 0 0 -.31-1 2.9 2.9 0 0 0 -.87-.78 7 7 0 0 0 -1.41-.65l-1.92-.63a19.51 19.51 0 0 1 -2-.79 7 7 0 0 1 -1.78-1.19 5.49 5.49 0 0 1 -1.26-1.75 6 6 0 0 1 -.47-2.5 6.16 6.16 0 0 1 .73-3.1 6.57 6.57 0 0 1 1.94-2.12 8.49 8.49 0 0 1 2.7-1.21 12.06 12.06 0 0 1 3-.38 11.27 11.27 0 0 1 3.76.67 9.66 9.66 0 0 1 3.36 2z" fill="#093f68"/><path d="m191.53 101.63h-70.53a1 1 0 0 1 0-2h70.55a1 1 0 0 1 0 2z" fill="#093f68"/><path d="m131.06 98.11h-5.12a1 1 0 0 1 0-2h5.12a1 1 0 0 1 0 2z" fill="#093f68"/><path d="m257.68 212.94h-113a1 1 0 1 1 0-2h113a1 1 0 0 1 0 2z" fill="#dfeaef"/></svg>